<?xml version="1.0" encoding="utf-8"?>
<svg id="svg2" viewBox="20.621 217.316 312.823 98.95" xmlns="http://www.w3.org/2000/svg" xmlns:bx="https://boxy-svg.com" width="312.823px" height="98.95px"><desc>Source: openclipart.org/detail/209545</desc><defs><bx:export><bx:file format="svg"/></bx:export></defs><path d="M 48.332 285.033 L 48.332 248.633 L 75.684 248.633 L 75.684 255.237 L 56.444 255.237 L 56.444 278.429 L 76.36 278.429 L 76.36 285.033 Z M 55.82 269.745 L 55.82 263.401 L 73.448 263.401 L 73.448 269.745 Z M 82.236 285.033 L 82.236 257.057 L 89.724 257.057 L 89.724 264.805 L 88.32 262.465 Q 89.776 259.657 92.584 258.175 Q 95.392 256.693 98.98 256.693 Q 102.36 256.693 104.986 258.019 Q 107.612 259.345 109.094 262.075 Q 110.576 264.805 110.576 269.069 L 110.576 285.033 L 102.776 285.033 L 102.776 270.161 Q 102.776 266.781 101.242 265.143 Q 99.708 263.505 96.952 263.505 Q 94.976 263.505 93.39 264.337 Q 91.804 265.169 90.946 266.833 Q 90.088 268.497 90.088 271.149 L 90.088 285.033 Z M 131.63 285.397 Q 126.846 285.397 123.284 283.551 Q 119.722 281.705 117.746 278.429 Q 115.77 275.153 115.77 271.045 Q 115.77 266.885 117.694 263.635 Q 119.618 260.385 122.972 258.539 Q 126.326 256.693 130.59 256.693 Q 134.698 256.693 137.974 258.461 Q 141.25 260.229 143.174 263.453 Q 145.098 266.677 145.098 271.149 Q 145.098 271.617 145.046 272.215 Q 144.994 272.813 144.942 273.281 L 122.114 273.281 L 122.114 268.653 L 140.782 268.653 L 137.714 270.057 Q 137.766 267.821 136.856 266.157 Q 135.946 264.493 134.334 263.557 Q 132.722 262.621 130.642 262.621 Q 128.458 262.621 126.846 263.557 Q 125.234 264.493 124.35 266.183 Q 123.466 267.873 123.466 270.161 L 123.466 271.357 Q 123.466 273.749 124.48 275.465 Q 125.494 277.181 127.418 278.143 Q 129.342 279.105 131.89 279.105 Q 134.126 279.105 135.816 278.429 Q 137.506 277.753 138.962 276.349 L 143.122 280.873 Q 141.198 283.109 138.286 284.253 Q 135.374 285.397 131.63 285.397 Z M 150.247 285.033 L 150.247 257.057 L 157.735 257.057 L 157.735 264.961 L 156.695 262.725 Q 157.891 259.709 160.647 258.201 Q 163.403 256.693 167.407 256.693 L 167.407 263.973 Q 166.887 263.921 166.471 263.869 Q 166.055 263.817 165.639 263.817 Q 162.207 263.817 160.153 265.793 Q 158.099 267.769 158.099 271.773 L 158.099 285.033 Z M 184.763 295.485 Q 180.811 295.485 177.145 294.523 Q 173.479 293.561 171.035 291.689 L 174.207 286.021 Q 176.027 287.477 178.757 288.335 Q 181.487 289.193 184.191 289.193 Q 188.559 289.193 190.535 287.243 Q 192.511 285.293 192.511 281.445 L 192.511 277.129 L 193.031 270.161 L 192.875 263.245 L 192.875 257.057 L 200.363 257.057 L 200.363 280.457 Q 200.363 288.205 196.333 291.845 Q 192.303 295.485 184.763 295.485 Z M 183.619 283.681 Q 179.719 283.681 176.547 281.991 Q 173.375 280.301 171.477 277.285 Q 169.579 274.269 169.579 270.161 Q 169.579 266.105 171.477 263.063 Q 173.375 260.021 176.547 258.357 Q 179.719 256.693 183.619 256.693 Q 187.155 256.693 189.833 258.123 Q 192.511 259.553 194.071 262.543 Q 195.631 265.533 195.631 270.161 Q 195.631 274.841 194.071 277.831 Q 192.511 280.821 189.833 282.251 Q 187.155 283.681 183.619 283.681 Z M 185.075 277.233 Q 187.259 277.233 188.975 276.349 Q 190.691 275.465 191.653 273.853 Q 192.615 272.241 192.615 270.161 Q 192.615 268.081 191.653 266.495 Q 190.691 264.909 188.975 264.025 Q 187.259 263.141 185.075 263.141 Q 182.891 263.141 181.175 264.025 Q 179.459 264.909 178.497 266.495 Q 177.535 268.081 177.535 270.161 Q 177.535 272.241 178.497 273.853 Q 179.459 275.465 181.175 276.349 Q 182.891 277.233 185.075 277.233 Z" style="fill: rgb(10, 31, 73); text-wrap-mode: nowrap;"/><path d="M 208.246 285.033 L 208.246 248.633 L 216.41 248.633 L 216.41 285.033 Z" style="fill: rgb(247, 147, 30); text-wrap-mode: nowrap;"/><path d="M 224.28 285.033 L 224.28 257.057 L 231.768 257.057 L 231.768 264.805 L 230.364 262.465 Q 231.82 259.657 234.628 258.175 Q 237.436 256.693 241.024 256.693 Q 244.404 256.693 247.03 258.019 Q 249.656 259.345 251.138 262.075 Q 252.62 264.805 252.62 269.069 L 252.62 285.033 L 244.82 285.033 L 244.82 270.161 Q 244.82 266.781 243.286 265.143 Q 241.752 263.505 238.996 263.505 Q 237.02 263.505 235.434 264.337 Q 233.848 265.169 232.99 266.833 Q 232.132 268.497 232.132 271.149 L 232.132 285.033 Z" style="fill: rgb(0, 150, 57); text-wrap-mode: nowrap;"/><path d="M 255.456 285.033 L 271.68 248.633 L 279.792 248.633 L 296.068 285.033 L 287.592 285.033 L 274.124 252.793 L 277.296 252.793 L 263.828 285.033 Z M 263.568 277.129 L 265.648 270.941 L 284.524 270.941 L 286.76 277.129 Z" style="fill: rgb(10, 31, 73); text-wrap-mode: nowrap;"/><path d="M 307.325 248.529 L 307.325 285.033 L 298.433 285.033 L 298.433 248.529 Z" style="fill: rgb(10, 31, 73); text-wrap-mode: nowrap;"/><text style="white-space: pre; fill: rgb(51, 51, 51); font-family: Arial, sans-serif; font-size: 28px; visibility: hidden;" x="452.189" y="268.006"> </text><text style="white-space: pre; fill: rgb(51, 51, 51); font-family: Arial, sans-serif; font-size: 28px;" x="346.4" y="256.918"> </text><path d="M 309.119 243.558 L 315.55 243.558 L 315.55 245.257 L 313.292 245.257 L 313.292 254.233 L 311.378 254.233 L 311.406 245.257 L 309.119 245.257 L 309.119 243.558 Z M 327.727 243.558 L 327.727 254.233 L 325.946 254.233 L 325.919 246.498 L 323.022 254.233 L 321.668 254.233 L 318.795 246.379 L 318.795 254.233 L 317.042 254.233 L 317.042 243.558 L 319.512 243.558 L 322.41 251.655 L 325.389 243.558 L 327.727 243.558 Z" style="fill: rgb(10, 31, 73); text-wrap-mode: nowrap;"/></svg>